# xmcd
#
# Track frame offsets: 
#        150
#        18172
#        36262
#        57170
#        68272
#        83582
#        101300
#        123187
#        138027
#        161800
#
# Disc length: 2489 seconds
#
# Revision: 0
# Processed by: cddbd v1.4PL0 Copyright (c) Steve Scherf et al.
# Submitted via: ExactAudioCopy v0.90b4
#
DISCID=6b09b70a
DTITLE=Martyna Jakubowicz - Skorka Pomaranczy
DYEAR=1998
DGENRE=Blues
TTITLE0=Skora Biala Jak Snieg
TTITLE1=Rudzi Lysi i Cyklisci
TTITLE2=Bradziej Niz Kochanie
TTITLE3=Trutu-Tutu
TTITLE4=Pin-Up Man
TTITLE5=Nad Rzeczka
TTITLE6=Wejde Na Gore
TTITLE7=Skorka Pomaranczy
TTITLE8=Trawa Szepcze na Wietrze
TTITLE9=Skora Biala Jak Snieg - Final
EXTD=
EXTT0=
EXTT1=
EXTT2=
EXTT3=
EXTT4=
EXTT5=
EXTT6=
EXTT7=
EXTT8=
EXTT9=
PLAYORDER=
